<svg width="60" height="60" viewBox="0 0 60 60" fill="none" xmlns="http://www.w3.org/2000/svg">
<path d="M30.264 30.4765C39.5447 30.4765 47.1377 38.0741 47.1377 47.3507V50.6125H13.3872V47.3507C13.3872 38.069 20.9807 30.4765 30.264 30.4765Z" fill="white"/>
<path d="M30.7856 31.501C39.6019 31.501 46.8157 38.7189 46.8157 47.531V50.6301H14.7529V47.531C14.7529 38.7137 21.9662 31.501 30.7856 31.501Z" fill="#39C6F3"/>
<path d="M13.7749 50.2251H46.7505V47.3507C46.7505 38.2596 39.3554 30.864 30.2642 30.864C21.1721 30.864 13.7749 38.2596 13.7749 47.3507V50.2251ZM47.1379 51H13.3874C13.1736 51 13 50.8264 13 50.6126V47.3507C13 37.8324 20.7449 30.0891 30.2642 30.0891C39.7821 30.0891 47.5254 37.8324 47.5254 47.3507V50.6126C47.5254 50.8264 47.3523 51 47.1379 51Z" fill="#14183E"/>
<path d="M30.2642 10.3873C34.7953 10.3873 38.4693 14.0609 38.4693 18.5945C38.4693 23.1236 34.7953 26.7971 30.2642 26.7971C25.7305 26.7971 22.0601 23.1236 22.0601 18.5945C22.0601 14.0609 25.7305 10.3873 30.2642 10.3873Z" fill="white"/>
<path d="M30.7857 11.3188C35.0905 11.3188 38.5801 14.8084 38.5801 19.1158C38.5801 23.4181 35.0905 26.9082 30.7857 26.9082C26.4783 26.9082 22.9912 23.4181 22.9912 19.1158C22.9912 14.8084 26.4783 11.3188 30.7857 11.3188Z" fill="#39C6F3"/>
<path d="M30.2644 10.7748C25.9544 10.7748 22.4478 14.283 22.4478 18.5945C22.4478 22.904 25.9544 26.4097 30.2644 26.4097C34.5754 26.4097 38.0821 22.904 38.0821 18.5945C38.0821 14.283 34.5754 10.7748 30.2644 10.7748ZM30.2644 27.1846C25.5272 27.1846 21.6729 23.3313 21.6729 18.5945C21.6729 13.8558 25.5272 9.99987 30.2644 9.99987C35.0022 9.99987 38.857 13.8558 38.857 18.5945C38.857 23.3313 35.0022 27.1846 30.2644 27.1846Z" fill="#14183E"/>
<path d="M30.2643 10.3874C33.8655 10.3874 36.9243 12.7116 38.0288 15.9377C35.5274 15.6717 33.3602 14.28 32.0445 12.2838C30.5381 14.0666 28.2841 15.2078 25.7673 15.2078C24.8033 15.2078 23.8801 15.0409 23.0205 14.7335C24.4019 12.1485 27.1275 10.3874 30.2643 10.3874Z" fill="white"/>
<path d="M30.7986 11.0471C34.2195 11.0471 37.1259 13.2551 38.1746 16.3201C35.7988 16.0675 33.7396 14.745 32.4894 12.8485C31.0585 14.5425 28.9177 15.6263 26.5263 15.6263C25.6104 15.6263 24.7337 15.4682 23.917 15.1758C25.2292 12.7199 27.8189 11.0471 30.7986 11.0471" fill="#39C6F3"/>
<path d="M32.0445 11.8964C32.0518 11.8964 32.06 11.8964 32.0673 11.8969C32.1892 11.9041 32.3008 11.9682 32.3679 12.0705C33.5427 13.8527 35.3611 15.0626 37.4265 15.4568C36.1897 12.6315 33.3882 10.7748 30.2643 10.7748C27.5279 10.7748 25.0126 12.1955 23.594 14.5119C24.2976 14.717 25.0265 14.8203 25.7673 14.8203C28.0719 14.8203 30.2519 13.8047 31.7485 12.0333C31.8224 11.946 31.9309 11.8964 32.0445 11.8964V11.8964ZM38.0288 16.3252C38.0149 16.3252 38.0014 16.3247 37.988 16.3231C35.5936 16.0684 33.4404 14.8317 32.0073 12.9058C30.3816 14.6209 28.1344 15.5952 25.7673 15.5952C24.7806 15.5952 23.813 15.4284 22.8904 15.0983C22.784 15.0606 22.6998 14.9784 22.6595 14.873C22.6187 14.7676 22.6259 14.6504 22.6791 14.5507C24.1788 11.744 27.0857 9.99994 30.2643 9.99994C33.9379 9.99994 37.2054 12.3355 38.3951 15.8122C38.438 15.9377 38.4142 16.0762 38.3315 16.1795C38.2577 16.272 38.1456 16.3252 38.0288 16.3252" fill="#14183E"/>
<path d="M40.8587 51H19.6672C19.4534 51 19.2798 50.8264 19.2798 50.6126V42.4043C19.2798 42.1904 19.4534 42.0168 19.6672 42.0168C19.8811 42.0168 20.0547 42.1904 20.0547 42.4043V50.2251H40.4712V42.4043C40.4712 42.1904 40.6448 42.0168 40.8587 42.0168C41.0725 42.0168 41.2461 42.1904 41.2461 42.4043V50.6126C41.2461 50.8264 41.0725 51 40.8587 51Z" fill="#14183E"/>
<path d="M30.2644 35.9587L32.0989 45.3334L30.1709 46.9333L28.4248 45.3334L30.2644 35.9587Z" fill="white"/>
<path d="M30.7857 36.7542L32.5282 45.6603L30.6964 47.1802L29.0381 45.6603L30.7857 36.7542Z" fill="#39C6F3"/>
<path d="M28.8468 45.195L30.1832 46.4193L31.6741 45.1821L30.2638 37.9734L28.8468 45.195ZM30.1708 47.3208C30.0768 47.3208 29.9828 47.2867 29.9089 47.219L28.1633 45.6191C28.0636 45.5277 28.0187 45.3918 28.045 45.259L29.8846 35.8838C29.9197 35.7025 30.0794 35.5712 30.2643 35.5712C30.4498 35.5712 30.6089 35.7025 30.6445 35.8843L32.479 45.2596C32.5064 45.398 32.4552 45.5416 32.3462 45.6315L30.4183 47.2314C30.3465 47.2908 30.2586 47.3208 30.1708 47.3208Z" fill="#14183E"/>
<path d="M28.5894 35.9585H31.9374V34.1659H28.5894V35.9585Z" fill="white"/>
<path d="M29.1938 36.4348H32.3745V34.7321H29.1938V36.4348Z" fill="#39C6F3"/>
<path d="M28.977 35.571H31.5502V34.5533H28.977V35.571ZM31.9377 36.3459H28.5896C28.3757 36.3459 28.2021 36.1724 28.2021 35.9585V34.1659C28.2021 33.952 28.3757 33.7784 28.5896 33.7784H31.9377C32.1516 33.7784 32.3251 33.952 32.3251 34.1659V35.9585C32.3251 36.1724 32.1516 36.3459 31.9377 36.3459Z" fill="#14183E"/>
</svg>
