<svg width="60" height="60" viewBox="0 0 60 60" fill="none" xmlns="http://www.w3.org/2000/svg">
<path d="M30.3073 29.6079C35.493 29.6079 39.7347 33.8512 39.7347 39.0343V40.8586H20.8794V39.0343C20.8794 33.8512 25.1211 29.6079 30.3073 29.6079Z" fill="white"/>
<path d="M30.8285 30.4103C35.7552 30.4103 39.7849 34.4416 39.7849 39.3657V41.0991H21.8721V39.3657C21.8721 34.4416 25.9018 30.4103 30.8285 30.4103Z" fill="#39C6F3"/>
<path d="M21.2671 40.4709H39.347V39.0342C39.347 34.0502 35.2919 29.9956 30.3073 29.9956C25.3227 29.9956 21.2671 34.0502 21.2671 39.0342V40.4709ZM39.7347 41.2463H20.8794C20.6654 41.2463 20.4917 41.0726 20.4917 40.8586V39.0342C20.4917 33.6226 24.8947 29.2201 30.3073 29.2201C35.7195 29.2201 40.1225 33.6226 40.1225 39.0342V40.8586C40.1225 41.0726 39.9488 41.2463 39.7347 41.2463" fill="#14183E"/>
<path d="M30.3075 18.3877C32.8396 18.3877 34.8925 20.4369 34.8925 22.969C34.8925 25.5006 32.8396 27.5535 30.3075 27.5535C27.7754 27.5535 25.7241 25.5006 25.7241 22.969C25.7241 20.4369 27.7754 18.3877 30.3075 18.3877Z" fill="white"/>
<path d="M30.8285 19.1385C33.2339 19.1385 35.1844 21.0854 35.1844 23.4908C35.1844 25.8957 33.2339 27.8457 30.8285 27.8457C28.423 27.8457 26.4751 25.8957 26.4751 23.4908C26.4751 21.0854 28.423 19.1385 30.8285 19.1385Z" fill="#39C6F3"/>
<path d="M30.3076 18.7754C27.9942 18.7754 26.1119 20.6566 26.1119 22.969C26.1119 25.2829 27.9942 27.1657 30.3076 27.1657C32.622 27.1657 34.5048 25.2829 34.5048 22.969C34.5048 20.6566 32.622 18.7754 30.3076 18.7754ZM30.3076 27.9412C27.5666 27.9412 25.3364 25.711 25.3364 22.969C25.3364 20.2291 27.5666 17.9999 30.3076 17.9999C33.0496 17.9999 35.2803 20.2291 35.2803 22.969C35.2803 25.711 33.0496 27.9412 30.3076 27.9412Z" fill="#14183E"/>
<path d="M36.2262 41.2463H24.3882C24.1742 41.2463 24.0005 41.0726 24.0005 40.8586V36.2736C24.0005 36.0596 24.1742 35.8859 24.3882 35.8859C24.6022 35.8859 24.7759 36.0596 24.7759 36.2736V40.4709H35.8385V36.2736C35.8385 36.0596 36.0122 35.8859 36.2262 35.8859C36.4402 35.8859 36.6139 36.0596 36.6139 36.2736V40.8586C36.6139 41.0726 36.4402 41.2463 36.2262 41.2463Z" fill="#14183E"/>
<path d="M41.8898 30.5236C46.6862 30.5236 50.612 34.4494 50.612 39.2432V40.9316H33.1665V40.8588H39.7346V39.0344C39.7346 36.3462 38.5941 33.9154 36.7729 32.1913C38.2131 31.1424 39.9832 30.5236 41.8898 30.5236Z" fill="white"/>
<path d="M42.412 31.3051C46.968 31.3051 50.6979 35.0345 50.6979 39.589V41.1926H34.1245V41.1233H40.3643V39.3905C40.3643 36.8362 39.2812 34.5274 37.5504 32.8891C38.9189 31.8929 40.6005 31.3051 42.412 31.3051" fill="#39C6F3"/>
<path d="M40.1223 40.5439H50.2244V39.2432C50.2244 34.6489 46.4857 30.9113 41.8898 30.9113C40.2759 30.9113 38.7255 31.3708 37.3783 32.2455C39.1515 34.087 40.1223 36.48 40.1223 39.0344V40.5439ZM50.6121 41.3193H33.1665C32.9525 41.3193 32.7788 41.1456 32.7788 40.9316V40.8587C32.7788 40.6447 32.9525 40.471 33.1665 40.471H39.3469V39.0344C39.3469 36.5369 38.3383 34.2064 36.5061 32.473C36.4229 32.3934 36.3784 32.2812 36.3857 32.166C36.3934 32.0512 36.4513 31.9457 36.5449 31.8775C38.1098 30.7381 39.9584 30.1358 41.8898 30.1358C46.9132 30.1358 50.9998 34.2214 50.9998 39.2432V40.9316C50.9998 41.1456 50.8261 41.3193 50.6121 41.3193" fill="#14183E"/>
<path d="M41.8901 20.1402C44.2309 20.1402 46.1298 22.0359 46.1298 24.3788C46.1298 26.7222 44.2309 28.6226 41.8901 28.6226C39.5477 28.6226 37.6489 26.7222 37.6489 24.3788C37.6489 22.0359 39.5477 20.1402 41.8901 20.1402Z" fill="white"/>
<path d="M42.411 20.8737C44.635 20.8737 46.4392 22.6743 46.4392 24.9003C46.4392 27.1264 44.635 28.9321 42.411 28.9321C40.186 28.9321 38.3823 27.1264 38.3823 24.9003C38.3823 22.6743 40.186 20.8737 42.411 20.8737Z" fill="#39C6F3"/>
<path d="M41.8901 20.5279C39.7654 20.5279 38.0367 22.2556 38.0367 24.3787C38.0367 26.505 39.7654 28.2348 41.8901 28.2348C44.0138 28.2348 45.7421 26.505 45.7421 24.3787C45.7421 22.2556 44.0138 20.5279 41.8901 20.5279ZM41.8901 29.0103C39.3374 29.0103 37.2612 26.9325 37.2612 24.3787C37.2612 21.828 39.3374 19.7524 41.8901 19.7524C44.4414 19.7524 46.5175 21.828 46.5175 24.3787C46.5175 26.9325 44.4414 29.0103 41.8901 29.0103Z" fill="#14183E"/>
<path d="M47.3656 41.3193H36.4131C36.1991 41.3193 36.0254 41.1456 36.0254 40.9316V40.8587C36.0254 40.6447 36.1991 40.471 36.4131 40.471C36.4974 40.471 36.5754 40.4984 36.6395 40.5439H46.9778V36.6884C46.9778 36.4744 47.1515 36.3007 47.3656 36.3007C47.5796 36.3007 47.7533 36.4744 47.7533 36.6884V40.9316C47.7533 41.1456 47.5796 41.3193 47.3656 41.3193Z" fill="#14183E"/>
<path d="M19.112 30.2423C21 30.2423 22.7546 30.8492 24.1866 31.8821C22.1657 33.6145 20.8795 36.1812 20.8795 39.0344V40.6504H10.3877V38.962C10.3877 34.1646 14.3141 30.2423 19.112 30.2423" fill="white"/>
<path d="M19.5424 31.0239C21.3363 31.0239 23.003 31.6003 24.3631 32.582C22.4436 34.227 21.2215 36.6661 21.2215 39.3765V40.9114H11.2544V39.3077C11.2544 34.7502 14.9843 31.0239 19.5424 31.0239Z" fill="#39C6F3"/>
<path d="M10.7754 40.2626H20.4918V39.0343C20.4918 36.344 21.6038 33.7809 23.56 31.925C22.2288 31.0762 20.7012 30.63 19.112 30.63C14.5152 30.63 10.7754 34.3677 10.7754 38.962V40.2626ZM20.8796 41.0381H10.3877C10.1737 41.0381 10 40.8644 10 40.6504V38.962C10 33.9402 14.0876 29.8546 19.112 29.8546C21.0264 29.8546 22.8595 30.447 24.4135 31.5678C24.5097 31.6371 24.5691 31.7472 24.5738 31.8661C24.579 31.9845 24.5288 32.0992 24.4389 32.1763C22.4232 33.9045 21.2673 36.404 21.2673 39.0343V40.6504C21.2673 40.8644 21.0936 41.0381 20.8796 41.0381" fill="#14183E"/>
<path d="M19.1123 19.8584C21.4526 19.8584 23.353 21.7552 23.353 24.0981C23.353 26.441 21.4526 28.3408 19.1123 28.3408C16.7694 28.3408 14.8706 26.441 14.8706 24.0981C14.8706 21.7552 16.7694 19.8584 19.1123 19.8584Z" fill="white"/>
<path d="M19.6338 20.5919C21.8567 20.5919 23.6625 22.3935 23.6625 24.6196C23.6625 26.8451 21.8567 28.6504 19.6338 28.6504C17.4077 28.6504 15.604 26.8451 15.604 24.6196C15.604 22.3935 17.4077 20.5919 19.6338 20.5919Z" fill="#39C6F3"/>
<path d="M19.1123 20.2461C16.9871 20.2461 15.2584 21.9744 15.2584 24.0981C15.2584 26.2238 16.9871 27.9531 19.1123 27.9531C21.2371 27.9531 22.9653 26.2238 22.9653 24.0981C22.9653 21.9744 21.2371 20.2461 19.1123 20.2461ZM19.1123 28.7285C16.5596 28.7285 14.4829 26.6514 14.4829 24.0981C14.4829 21.5468 16.5596 19.4707 19.1123 19.4707C21.6646 19.4707 23.7407 21.5468 23.7407 24.0981C23.7407 26.6514 21.6646 28.7285 19.1123 28.7285Z" fill="#14183E"/>
<path d="M20.8796 41.0381H13.6348C13.4208 41.0381 13.2471 40.8644 13.2471 40.6504V36.4066C13.2471 36.1926 13.4208 36.0189 13.6348 36.0189C13.8488 36.0189 14.0225 36.1926 14.0225 36.4066V40.2626H20.8796C21.0936 40.2626 21.2673 40.4363 21.2673 40.6504C21.2673 40.8644 21.0936 41.0381 20.8796 41.0381" fill="#14183E"/>
<path d="M30.3074 32.5371L31.5264 38.7495L30.2469 39.8103L29.0879 38.7495L30.3074 32.5371" fill="white"/>
<path d="M30.8284 33.2401L31.987 39.1418L30.7716 40.1499L29.6699 39.1418L30.8284 33.2401" fill="#39C6F3"/>
<path d="M29.5103 38.6104L30.2593 39.2964L31.102 38.598L30.3074 34.5501L29.5103 38.6104ZM30.2469 40.198C30.1529 40.198 30.0593 40.1639 29.9854 40.0962L28.8258 39.0354C28.726 38.9444 28.6816 38.8074 28.7074 38.675L29.9269 32.4621C29.9626 32.2807 30.1218 32.1494 30.3074 32.1494C30.4925 32.1494 30.6522 32.2807 30.6874 32.4621L31.9069 38.675C31.9348 38.8141 31.8831 38.9578 31.7741 39.0483L30.4941 40.1091C30.4222 40.1685 30.3343 40.198 30.2469 40.198" fill="#14183E"/>
<path d="M29.1958 32.5371H31.4182V31.3481H29.1958V32.5371Z" fill="white"/>
<path d="M29.7729 33.0286H31.8842V31.899H29.7729V33.0286Z" fill="#39C6F3"/>
<path d="M29.5836 32.1494H31.0305V31.7358H29.5836V32.1494ZM31.4183 32.9248H29.1958C28.9818 32.9248 28.8081 32.7511 28.8081 32.5371V31.3481C28.8081 31.134 28.9818 30.9603 29.1958 30.9603H31.4183C31.6323 30.9603 31.806 31.134 31.806 31.3481V32.5371C31.806 32.7511 31.6323 32.9248 31.4183 32.9248Z" fill="#14183E"/>
</svg>
