<svg width="60" height="60" viewBox="0 0 60 60" fill="none" xmlns="http://www.w3.org/2000/svg">
<path d="M47.0864 10.0719H12.897V38.6094H47.0864V10.0719Z" fill="white"/>
<path d="M46.7908 11.3446H14.3105V38.4543H46.7908V11.3446" fill="#39C6F3"/>
<path d="M13.3125 38.1936H46.6704V10.4877H13.3125V38.1936ZM47.0862 39.0251H12.8968C12.6672 39.0251 12.481 38.8387 12.481 38.6094V10.0719C12.481 9.84236 12.6672 9.65608 12.8968 9.65608H47.0862C47.3157 9.65608 47.502 9.84236 47.502 10.0719V38.6094C47.502 38.8387 47.3157 39.0251 47.0862 39.0251Z" fill="#14183E"/>
<path d="M50.5679 8.83154H9.41579C9.18627 8.83154 9 8.64527 9 8.41575C9 8.18623 9.18627 7.99995 9.41579 7.99995H50.5679C50.7974 7.99995 50.9837 8.18623 50.9837 8.41575C50.9837 8.64527 50.7974 8.83154 50.5679 8.83154Z" fill="#14183E"/>
<path d="M50.5679 40.8499H9.41579C9.18627 40.8499 9 40.6636 9 40.4341C9 40.2045 9.18627 40.0183 9.41579 40.0183H50.5679C50.7974 40.0183 50.9837 40.2045 50.9837 40.4341C50.9837 40.6636 50.7974 40.8499 50.5679 40.8499Z" fill="#14183E"/>
<path d="M15.8503 52C15.797 52 15.7427 51.9894 15.6906 51.9677C15.4783 51.8796 15.3785 51.6364 15.4666 51.4246L20.1119 40.2746C20.2 40.0621 20.4434 39.9629 20.6558 40.05C20.8675 40.1388 20.9679 40.382 20.8792 40.5938L16.2345 51.7438C16.1674 51.9034 16.0133 52 15.8503 52" fill="#14183E"/>
<path d="M44.1316 52C43.9686 52 43.8145 51.9034 43.7474 51.7438L39.1021 40.5938C39.0134 40.382 39.1138 40.1388 39.3255 40.05C39.5379 39.9625 39.7813 40.0621 39.8694 40.2746L44.5152 51.4246C44.6034 51.6364 44.5036 51.8796 44.2912 51.9677C44.2391 51.9894 44.1854 52 44.1316 52" fill="#14183E"/>
<path d="M18.856 26.4705H21.6374V34.9988H18.856V26.4705Z" fill="white"/>
<path d="M19.4849 27.2435H22.1271V35.3447H19.4849V27.2435Z" fill="#39C6F3"/>
<path d="M19.272 34.5832H21.2218V26.8866H19.272V34.5832ZM21.6376 35.4148H18.8562C18.6267 35.4148 18.4404 35.2286 18.4404 34.999V26.4708C18.4404 26.2412 18.6267 26.055 18.8562 26.055H21.6376C21.8671 26.055 22.0534 26.2412 22.0534 26.4708V34.999C22.0534 35.2286 21.8671 35.4148 21.6376 35.4148Z" fill="#14183E"/>
<path d="M23.7266 24.6627H26.5113V34.9988H23.7266V24.6627Z" fill="white"/>
<path d="M24.355 25.4806H27V35.3H24.355V25.4806Z" fill="#39C6F3"/>
<path d="M24.1421 34.5832H26.0953V25.0787H24.1421V34.5832ZM26.5111 35.4148H23.7263C23.4968 35.4148 23.3105 35.2286 23.3105 34.999V24.6629C23.3105 24.4334 23.4968 24.2471 23.7263 24.2471H26.5111C26.7406 24.2471 26.9269 24.4334 26.9269 24.6629V34.999C26.9269 35.2286 26.7406 35.4148 26.5111 35.4148Z" fill="#14183E"/>
<path d="M28.5991 22.872H31.3844V34.9988H28.5991V22.872Z" fill="white"/>
<path d="M29.228 23.7348H31.8736V35.2551H29.228V23.7348Z" fill="#39C6F3"/>
<path d="M29.0147 34.5832H30.9684V23.288H29.0147V34.5832ZM31.3842 35.4148H28.5989C28.3694 35.4148 28.1831 35.2286 28.1831 34.999V22.8722C28.1831 22.6427 28.3694 22.4564 28.5989 22.4564H31.3842C31.6137 22.4564 31.8 22.6427 31.8 22.8722V34.999C31.8 35.2286 31.6137 35.4148 31.3842 35.4148Z" fill="#14183E"/>
<path d="M33.4692 21.0136H36.2545V34.9988H33.4692V21.0136Z" fill="white"/>
<path d="M34.0986 21.923H36.7442V35.2085H34.0986V21.923Z" fill="#39C6F3"/>
<path d="M33.8853 34.5832H35.839V21.4297H33.8853V34.5832ZM36.2548 35.4148H33.4695C33.24 35.4148 33.0537 35.2286 33.0537 34.999V21.0139C33.0537 20.7843 33.24 20.5981 33.4695 20.5981H36.2548C36.4843 20.5981 36.6706 20.7843 36.6706 21.0139V34.999C36.6706 35.2286 36.4843 35.4148 36.2548 35.4148Z" fill="#14183E"/>
<path d="M38.3428 18.9025H41.1269V34.9988H38.3428V18.9025Z" fill="white"/>
<path d="M38.9722 19.864H41.6172V35.1558H38.9722V19.864Z" fill="#39C6F3"/>
<path d="M38.7588 34.5832H40.7114V19.3185H38.7588V34.5832ZM41.1272 35.4148H38.343C38.1135 35.4148 37.9272 35.2286 37.9272 34.999V18.9027C37.9272 18.6732 38.1135 18.4869 38.343 18.4869H41.1272C41.3567 18.4869 41.543 18.6732 41.543 18.9027V34.999C41.543 35.2286 41.3567 35.4148 41.1272 35.4148Z" fill="#14183E"/>
<path d="M18.6114 23.5623C18.4279 23.5623 18.2599 23.4397 18.21 23.254C18.1507 23.0323 18.2821 22.8044 18.5039 22.7451C18.6608 22.7029 34.2071 18.5067 38.3495 14.9553C38.5247 14.8062 38.7864 14.8256 38.9361 15.0002C39.0852 15.1743 39.0652 15.4371 38.8911 15.5862C34.6051 19.2607 19.366 23.3749 18.7195 23.5484C18.6835 23.5578 18.6475 23.5623 18.6114 23.5623Z" fill="#14183E"/>
<path d="M38.5622 17.634C38.524 17.634 38.4852 17.6285 38.4464 17.6174C38.2257 17.5531 38.0987 17.3225 38.1631 17.1024L38.7585 15.05L36.6862 15.5612C36.4622 15.6166 36.2382 15.4802 36.1828 15.2573C36.1273 15.0339 36.2637 14.8088 36.4866 14.7534L39.2597 14.0693C39.4032 14.0338 39.5557 14.0776 39.6588 14.1852C39.7619 14.2922 39.7996 14.4468 39.7586 14.5893L38.9614 17.3341C38.9087 17.516 38.743 17.634 38.5622 17.634" fill="#14183E"/>
</svg>
