<svg width="60" height="60" viewBox="0 0 60 60" fill="none" xmlns="http://www.w3.org/2000/svg">
<path d="M24.487 18.7088C22.9697 19.0089 21.5563 19.6113 20.3127 20.4355L16.9842 17.1117L13.6883 20.4099L17.0152 23.7345C16.1864 24.9812 15.5894 26.3908 15.2854 27.9135H10.5815V32.5701H15.2823C15.5894 34.0882 16.1864 35.5016 17.0152 36.7499L13.6883 40.0737L16.9842 43.3743L20.3127 40.0497C21.5563 40.8731 22.9697 41.4685 24.487 41.7756V46.4841H29.1514V41.7756C30.6695 41.4685 32.0829 40.8731 33.3265 40.0497L36.6534 43.3743L39.9509 40.0737L36.624 36.7499C37.4528 35.5016 38.0498 34.0882 38.3568 32.5701H43.0561V27.9135H38.3568C38.0498 26.3908 37.4528 24.9812 36.624 23.7345L39.9509 20.4099L36.6534 17.1117L33.3265 20.4355C32.0829 19.6113 30.6695 19.0089 29.1514 18.7088V14.0011H24.487V18.7088Z" fill="white"/>
<path d="M25.3853 20.0672C23.944 20.3525 22.6011 20.9255 21.4195 21.7071L18.2577 18.5499L15.1262 21.683L18.2864 24.8417C17.4995 26.0264 16.9327 27.3646 16.6443 28.8129H12.1753V33.2361H16.6412C16.9327 34.6783 17.4995 36.0203 18.2864 37.2066L15.1262 40.3645L18.2577 43.4999L21.4195 40.3412C22.6011 41.1235 23.944 41.6888 25.3853 41.9811V46.4531H29.8163V41.9811C31.2584 41.6888 32.6012 41.1235 33.7828 40.3412L36.9439 43.4999L40.0754 40.3645L36.9159 37.2066C37.7029 36.0203 38.2697 34.6783 38.5612 33.2361H43.0263V28.8129H38.5612C38.2697 27.3646 37.7029 26.0264 36.9159 24.8417L40.0754 21.683L36.9439 18.5499L33.7828 21.7071C32.6012 20.9255 31.2584 20.3525 29.8163 20.0672V15.5952H25.3853V20.0672" fill="#39C6F3"/>
<path d="M25.0685 45.9024H28.5698V41.7754C28.5698 41.4994 28.7652 41.2606 29.0358 41.2055C30.4616 40.9171 31.7975 40.3651 33.0055 39.5649C33.2365 39.4106 33.5428 39.4417 33.7382 39.6378L36.6534 42.5515L39.1282 40.0735L36.213 37.1607C36.0176 36.9653 35.9866 36.659 36.1393 36.428C36.9441 35.2161 37.4985 33.8802 37.7861 32.4552C37.8412 32.1838 38.08 31.9884 38.3568 31.9884H42.4745V28.4948H38.3568C38.08 28.4948 37.8412 28.2995 37.7861 28.0289C37.4993 26.6054 36.9457 25.2679 36.1401 24.0561C35.9866 23.825 36.0176 23.518 36.213 23.3226L39.1282 20.4097L36.6534 17.9333L33.7382 20.8462C33.542 21.0424 33.2365 21.0726 33.0055 20.9199C31.782 20.1097 30.4469 19.5576 29.0389 19.2793C28.766 19.225 28.5698 18.987 28.5698 18.7087V14.5824H25.0685V18.7087C25.0685 18.987 24.8723 19.225 24.5994 19.2793C23.1914 19.5576 21.8571 20.1097 20.6336 20.9199C20.4025 21.0734 20.0963 21.0424 19.9017 20.8462L16.9849 17.9333L14.5101 20.4097L17.4261 23.3226C17.6215 23.518 17.6525 23.825 17.499 24.0561C16.6926 25.2703 16.139 26.6061 15.856 28.0273C15.8018 28.2987 15.563 28.4948 15.2854 28.4948H11.163V31.9884H15.2823C15.5591 31.9884 15.7979 32.1838 15.8529 32.4552C16.1406 33.8802 16.6949 35.2161 17.4997 36.428C17.6525 36.659 17.6215 36.9653 17.4261 37.1607L14.5101 40.0743L16.9849 42.5515L19.9009 39.6378C20.0963 39.4417 20.4025 39.4114 20.6336 39.5649C21.8416 40.3651 23.1767 40.9171 24.6025 41.2055C24.8731 41.2606 25.0685 41.4994 25.0685 41.7754V45.9024ZM29.1513 47.0654H24.487C24.166 47.0654 23.9055 46.8049 23.9055 46.4839V42.2421C22.6618 41.9405 21.4841 41.4536 20.394 40.7899L17.3951 43.785C17.2865 43.8944 17.1384 43.9556 16.9841 43.9556C16.8299 43.9556 16.6818 43.8944 16.5724 43.785L13.2765 40.4845C13.0494 40.2573 13.0494 39.889 13.2765 39.6626L16.2739 36.6675C15.6064 35.5751 15.1172 34.3958 14.8163 33.1514H10.5815C10.2605 33.1514 10 32.8909 10 32.5699V27.9133C10 27.5924 10.2605 27.3318 10.5815 27.3318H14.8179C15.1164 26.0898 15.6048 24.9105 16.2739 23.815L13.2765 20.8207C13.168 20.7113 13.1067 20.564 13.1067 20.4097C13.1067 20.2554 13.168 20.1074 13.2765 19.998L16.5732 16.6998C16.7996 16.4726 17.1687 16.4726 17.3951 16.6998L20.394 19.6949C21.4942 19.0235 22.6719 18.5365 23.9055 18.2411V14.0009C23.9055 13.6799 24.166 13.4194 24.487 13.4194H29.1513C29.4723 13.4194 29.7328 13.6799 29.7328 14.0009V18.2411C30.9664 18.5358 32.1441 19.0235 33.2451 19.6949L36.2425 16.6998C36.4696 16.4726 36.8379 16.4726 37.0651 16.6998L40.3618 19.998C40.4711 20.1074 40.5323 20.2547 40.5323 20.4097C40.5323 20.564 40.4711 20.7113 40.3618 20.8207L37.3651 23.815C38.0335 24.9089 38.5219 26.0882 38.8235 27.3318H43.056C43.377 27.3318 43.6375 27.5924 43.6375 27.9133V32.5699C43.6375 32.8909 43.377 33.1514 43.056 33.1514H38.8227C38.5219 34.3958 38.0327 35.5751 37.3651 36.6675L40.3618 39.6626C40.5889 39.889 40.5889 40.2573 40.3625 40.4845L37.0651 43.785C36.9558 43.8944 36.8084 43.9556 36.6542 43.9556H36.6534C36.4999 43.9556 36.3518 43.8944 36.2425 43.785L33.2451 40.7899C32.1549 41.4536 30.9772 41.9405 29.7328 42.2421V46.4839C29.7328 46.8049 29.4723 47.0654 29.1513 47.0654" fill="#14183E"/>
<path d="M26.82 21.8855C22.2044 21.8855 18.4658 25.6288 18.4658 30.2427C18.4658 34.8559 22.2044 38.593 26.82 38.593C31.4347 38.593 35.1733 34.8559 35.1733 30.2427C35.1733 25.6288 31.4347 21.8855 26.82 21.8855Z" fill="white"/>
<path d="M27.602 23.0848C23.2168 23.0848 19.665 26.6412 19.665 31.0249C19.665 35.4071 23.2168 38.9573 27.602 38.9573C31.9857 38.9573 35.5375 35.4071 35.5375 31.0249C35.5375 26.6412 31.9857 23.0848 27.602 23.0848Z" fill="#39C6F3"/>
<path d="M26.8199 22.4671C22.5339 22.4671 19.0473 25.9552 19.0473 30.2428C19.0473 34.5265 22.5339 38.0116 26.8199 38.0116C31.1051 38.0116 34.5918 34.5265 34.5918 30.2428C34.5918 25.9552 31.1051 22.4671 26.8199 22.4671ZM26.8199 39.1746C21.8927 39.1746 17.8843 35.1677 17.8843 30.2428C17.8843 25.314 21.8927 21.3041 26.8199 21.3041C31.7463 21.3041 35.7548 25.314 35.7548 30.2428C35.7548 35.1677 31.7463 39.1746 26.8199 39.1746Z" fill="#14183E"/>
<path d="M20.7358 35.9693C22.2594 37.5851 24.4202 38.593 26.8198 38.593C29.2187 38.593 31.3787 37.5851 32.9022 35.9693C31.968 34.0201 29.597 32.6393 26.8198 32.6393C24.0418 32.6393 21.6709 34.0201 20.7358 35.9693Z" fill="white"/>
<path d="M21.8213 36.7337C23.2696 38.2688 25.3219 39.2256 27.6021 39.2256C29.8808 39.2256 31.9323 38.2688 33.3806 36.7337C32.4929 34.8822 30.2405 33.5696 27.6021 33.5696C24.9621 33.5696 22.7098 34.8822 21.8213 36.7337Z" fill="#39C6F3"/>
<path d="M21.4522 35.8662C22.9028 37.2525 24.7931 38.0116 26.8198 38.0116C28.8457 38.0116 30.7352 37.2525 32.1858 35.8662C31.2159 34.2698 29.1178 33.2208 26.8198 33.2208C24.5209 33.2208 22.4229 34.2698 21.4522 35.8662ZM26.8198 39.1746C24.3302 39.1746 22.0189 38.1783 20.3124 36.3686C20.1473 36.1934 20.107 35.9345 20.2109 35.7182C21.2777 33.4945 23.872 32.0578 26.8198 32.0578C29.7676 32.0578 32.361 33.4945 33.4271 35.7182C33.531 35.9345 33.4907 36.1934 33.3255 36.3686C31.619 38.1783 29.3086 39.1746 26.8198 39.1746Z" fill="#14183E"/>
<path d="M39.1725 16.4332C38.2514 16.617 37.397 16.9806 36.6441 17.4792L34.6283 15.4687L32.6318 17.466L34.6469 19.4749C34.146 20.2316 33.784 21.0852 33.5994 22.0078H30.7524V24.8277H33.5994C33.784 25.7496 34.146 26.6032 34.6469 27.3591L32.6318 29.375L34.6283 31.3722L36.6441 29.3564C37.397 29.8603 38.2514 30.2178 39.1725 30.407V33.2532H41.997V30.407C42.915 30.2178 43.7694 29.8603 44.5253 29.3564L46.5404 31.3722L48.5345 29.375L46.5226 27.3591C47.0234 26.6032 47.3855 25.7496 47.57 24.8277H50.4186V22.0078H47.57C47.3855 21.0852 47.0234 20.2316 46.5226 19.4749L48.5345 17.466L46.5404 15.4687L44.5253 17.4792C43.7694 16.9806 42.915 16.617 41.997 16.4332V13.5816H39.1725V16.4332Z" fill="white"/>
<path d="M40.0254 17.5643C39.1501 17.7395 38.3391 18.0845 37.6234 18.5575L35.7076 16.6478L33.8119 18.5458L35.7255 20.4539C35.2502 21.1719 34.9059 21.9836 34.7307 22.8598H32.0264V25.5393H34.7307C34.9059 26.4146 35.2502 27.2256 35.7255 27.9436L33.8119 29.8586L35.7076 31.7566L37.6234 29.8416C38.3391 30.3199 39.1501 30.6603 40.0254 30.8386V33.543H42.708V30.8386C43.5803 30.6603 44.392 30.3199 45.11 29.8416L47.0243 31.7566L48.9192 29.8586L47.0072 27.9436C47.4833 27.2256 47.8275 26.4146 48.0027 25.5393H50.7086V22.8598H48.0027C47.8275 21.9836 47.4833 21.1719 47.0072 20.4539L48.9192 18.5458L47.0243 16.6478L45.11 18.5575C44.392 18.0845 43.5803 17.7395 42.708 17.5643V14.8553H40.0254V17.5643Z" fill="#39C6F3"/>
<path d="M39.7539 32.6715H41.4154V30.4068C41.4154 30.13 41.6093 29.8919 41.8799 29.8369C42.7203 29.664 43.5026 29.3399 44.2027 28.8724C44.433 28.7181 44.74 28.7499 44.9362 28.9453L46.5404 30.5486L47.7126 29.3748L46.1108 27.7691C45.9154 27.5737 45.8844 27.2682 46.0379 27.0372C46.5109 26.3247 46.8342 25.5431 46.9993 24.7143C47.0536 24.4422 47.2924 24.246 47.57 24.246H49.837V22.5891H47.57C47.2924 22.5891 47.0536 22.393 46.9993 22.1208C46.8342 21.292 46.5109 20.5097 46.0379 19.7956C45.8844 19.5654 45.9154 19.2591 46.1116 19.063L47.7119 17.465L46.5396 16.2904L44.9362 17.8907C44.7408 18.086 44.4353 18.1163 44.2051 17.9643C43.4887 17.4914 42.7071 17.1681 41.8822 17.0029C41.6108 16.9486 41.4154 16.7098 41.4154 16.433V14.1629H39.7539V16.433C39.7539 16.7098 39.5585 16.9486 39.2864 17.0029C38.4591 17.1681 37.6784 17.4914 36.9651 17.9643C36.7348 18.1147 36.4293 18.086 36.2332 17.8907L34.629 16.2904L33.4552 17.465L35.057 19.063C35.2532 19.2583 35.2842 19.5646 35.1314 19.7956C34.6585 20.5097 34.3352 21.292 34.17 22.1208C34.1158 22.393 33.877 22.5891 33.5994 22.5891H31.3339V24.246H33.5994C33.877 24.246 34.1158 24.4422 34.17 24.7143C34.3352 25.5431 34.6585 26.3247 35.1314 27.038C35.2842 27.2682 35.2539 27.5745 35.0586 27.7699L33.4544 29.3748L34.6282 30.5494L36.2332 28.9453C36.4301 28.7483 36.7371 28.7204 36.9674 28.8732C37.6644 29.3399 38.4459 29.664 39.2895 29.8369C39.5601 29.8919 39.7539 30.13 39.7539 30.4068V32.6715ZM41.9969 33.8345H39.1724C38.8514 33.8345 38.5909 33.574 38.5909 33.253V30.8665C37.9327 30.6905 37.3085 30.4316 36.7286 30.0943L35.0392 31.783C34.9306 31.8923 34.7825 31.9535 34.6282 31.9535C34.474 31.9535 34.3259 31.8923 34.2173 31.783L32.2209 29.7865C31.9937 29.5593 31.9937 29.191 32.2201 28.9639L33.9103 27.2737C33.5699 26.686 33.311 26.061 33.1381 25.409H30.7524C30.4314 25.409 30.1709 25.1485 30.1709 24.8275V22.0076C30.1709 21.6859 30.4314 21.4262 30.7524 21.4262H33.1381C33.311 20.7741 33.5691 20.1492 33.9095 19.5607L32.2216 17.8775C32.1123 17.7689 32.0503 17.6208 32.0503 17.4666C32.0503 17.3123 32.1115 17.1634 32.2209 17.0549L34.2173 15.0576C34.4445 14.8312 34.812 14.8304 35.0392 15.0568L36.7294 16.7424C37.3171 16.4028 37.9404 16.1446 38.5909 15.971V13.5814C38.5909 13.2604 38.8514 12.9999 39.1724 12.9999H41.9969C42.3179 12.9999 42.5784 13.2604 42.5784 13.5814V15.9717C43.2274 16.1446 43.85 16.4028 44.44 16.7424L46.1294 15.0568C46.3574 14.8304 46.7249 14.8312 46.9513 15.0576L48.9462 17.0549C49.0547 17.1642 49.116 17.3123 49.116 17.4666C49.116 17.6201 49.0547 17.7689 48.9454 17.8775L47.2591 19.5599C47.5994 20.1492 47.8584 20.7733 48.0313 21.4262H50.4185C50.7395 21.4262 51 21.6859 51 22.0076V24.8275C51 25.1485 50.7395 25.409 50.4185 25.409H48.0313C47.8576 26.0618 47.5994 26.686 47.2591 27.2737L48.9462 28.9646C49.1726 29.191 49.1726 29.5593 48.9462 29.7865L46.9513 31.783C46.7334 32.0001 46.3473 32.0008 46.1286 31.783L44.4408 30.0935C43.8585 30.4316 43.2351 30.6897 42.5784 30.8657V33.253C42.5784 33.574 42.3179 33.8345 41.9969 33.8345" fill="#14183E"/>
<path d="M40.5833 19.8569C38.6171 19.8569 37.0215 21.4487 37.0215 23.4203C37.0215 25.3865 38.6171 26.9783 40.5833 26.9783C42.5527 26.9783 44.1475 25.3865 44.1475 23.4203C44.1475 21.4487 42.5527 19.8569 40.5833 19.8569Z" fill="white"/>
<path d="M41.3652 20.8168C39.4982 20.8168 37.9824 22.3295 37.9824 24.2026C37.9824 26.0704 39.4982 27.5823 41.3652 27.5823C43.2368 27.5823 44.7518 26.0704 44.7518 24.2026C44.7518 22.3295 43.2368 20.8168 41.3652 20.8168Z" fill="#39C6F3"/>
<path d="M40.5833 20.4382C38.9396 20.4382 37.6029 21.7764 37.6029 23.4201C37.6029 25.0615 38.9396 26.3966 40.5833 26.3966C42.2277 26.3966 43.566 25.0615 43.566 23.4201C43.566 21.7764 42.2277 20.4382 40.5833 20.4382ZM40.5833 27.5596C38.2984 27.5596 36.4399 25.7027 36.4399 23.4201C36.4399 21.1352 38.2984 19.2752 40.5833 19.2752C42.8689 19.2752 44.729 21.1352 44.729 23.4201C44.729 25.7027 42.8689 27.5596 40.5833 27.5596Z" fill="#14183E"/>
<path d="M27.0005 25.1301C25.477 25.1301 24.2388 26.3707 24.2388 27.8942C24.2388 29.4193 25.477 30.6536 27.0005 30.6536C28.524 30.6536 29.763 29.4193 29.763 27.8942C29.763 26.3707 28.524 25.1301 27.0005 25.1301Z" fill="white"/>
<path d="M27.7827 26.0497C26.3351 26.0497 25.1582 27.229 25.1582 28.6765C25.1582 30.1248 26.3351 31.2971 27.7827 31.2971C29.2302 31.2971 30.4064 30.1248 30.4064 28.6765C30.4064 27.229 29.2302 26.0497 27.7827 26.0497Z" fill="#39C6F3"/>
<path d="M27.0004 25.7117C25.7979 25.7117 24.8202 26.6902 24.8202 27.8942C24.8202 29.0952 25.7979 30.0721 27.0004 30.0721C28.203 30.0721 29.1814 29.0952 29.1814 27.8942C29.1814 26.6902 28.203 25.7117 27.0004 25.7117ZM27.0004 31.2351C25.1567 31.2351 23.6572 29.7364 23.6572 27.8942C23.6572 26.049 25.1567 24.5487 27.0004 24.5487C28.8442 24.5487 30.3444 26.049 30.3444 27.8942C30.3444 29.7364 28.8442 31.2351 27.0004 31.2351Z" fill="#14183E"/>
</svg>
