<svg width="60" height="60" viewBox="0 0 60 60" fill="none" xmlns="http://www.w3.org/2000/svg">
<path d="M39.1966 40.2749H11.6015C9.61545 40.2749 8 38.6628 8 36.6806C8 34.6962 9.61545 33.0813 11.6015 33.0813H38.9207L45.8268 16.6786C45.916 16.467 46.1587 16.3667 46.3709 16.4564C46.5825 16.5456 46.6816 16.7894 46.593 17.001L39.5794 33.658C39.5146 33.812 39.3634 33.9123 39.1966 33.9123H11.6015C10.0736 33.9123 8.83099 35.1538 8.83099 36.6806C8.83099 38.2046 10.0736 39.4439 11.6015 39.4439H39.1966C39.426 39.4439 39.6121 39.6301 39.6121 39.8594C39.6121 40.0888 39.426 40.2749 39.1966 40.2749" fill="#14183E"/>
<path d="M45.0229 14.1108H50.2222C50.9728 14.1108 51.5844 14.7202 51.5844 15.4731C51.5844 16.2249 50.9728 16.8398 50.2222 16.8398H45.0229C44.2723 16.8398 43.6606 16.2249 43.6606 15.4731C43.6606 14.7202 44.2723 14.1108 45.0229 14.1108Z" fill="white"/>
<path d="M45.7116 14.7379H50.651C51.364 14.7379 51.9452 15.3174 51.9452 16.0321C51.9452 16.7462 51.364 17.3301 50.651 17.3301H45.7116C44.9986 17.3301 44.4175 16.7462 44.4175 16.0321C44.4175 15.3174 44.9986 14.7379 45.7116 14.7379Z" fill="#39C6F3"/>
<path d="M45.0229 14.5264C44.5005 14.5264 44.0761 14.9507 44.0761 15.4731C44.0761 15.9972 44.5005 16.4244 45.0229 16.4244H50.2221C50.744 16.4244 51.1689 15.9972 51.1689 15.4731C51.1689 14.9507 50.744 14.5264 50.2221 14.5264H45.0229ZM50.2221 17.2554H45.0229C44.0423 17.2554 43.2451 16.4554 43.2451 15.4731C43.2451 14.4926 44.0423 13.6954 45.0229 13.6954H50.2221C51.2027 13.6954 51.9999 14.4926 51.9999 15.4731C51.9999 16.4554 51.2027 17.2554 50.2221 17.2554Z" fill="#14183E"/>
<path d="M16.5682 39.8597C18.0629 39.8597 19.2739 41.0735 19.2739 42.5726C19.2739 44.0673 18.0629 45.2805 16.5682 45.2805C15.068 45.2805 13.8569 44.0673 13.8569 42.5726C13.8569 41.0735 15.068 39.8597 16.5682 39.8597Z" fill="white"/>
<path d="M17.1263 40.5537C18.5462 40.5537 19.6968 41.7066 19.6968 43.1315C19.6968 44.5508 18.5462 45.7031 17.1263 45.7031C15.7014 45.7031 14.5508 44.5508 14.5508 43.1315C14.5508 41.7066 15.7014 40.5537 17.1263 40.5537Z" fill="#39C6F3"/>
<path d="M16.5682 40.2749C15.3023 40.2749 14.2724 41.3059 14.2724 42.5724C14.2724 43.836 15.3023 44.8648 16.5682 44.8648C17.8307 44.8648 18.8584 43.836 18.8584 42.5724C18.8584 41.3059 17.8307 40.2749 16.5682 40.2749ZM16.5682 45.6958C14.8441 45.6958 13.4414 44.2942 13.4414 42.5724C13.4414 40.8478 14.8441 39.444 16.5682 39.444C18.2889 39.444 19.6894 40.8478 19.6894 42.5724C19.6894 44.2942 18.2889 45.6958 16.5682 45.6958Z" fill="#14183E"/>
<path d="M32.2177 39.8597C33.7163 39.8597 34.9295 41.0735 34.9295 42.5726C34.9295 44.0673 33.7163 45.2805 32.2177 45.2805C30.7236 45.2805 29.5098 44.0673 29.5098 42.5726C29.5098 41.0735 30.7236 39.8597 32.2177 39.8597Z" fill="white"/>
<path d="M32.7769 40.5537C34.2001 40.5537 35.3529 41.7066 35.3529 43.1315C35.3529 44.5508 34.2001 45.7031 32.7769 45.7031C31.357 45.7031 30.2041 44.5508 30.2041 43.1315C30.2041 41.7066 31.357 40.5537 32.7769 40.5537Z" fill="#39C6F3"/>
<path d="M32.2177 40.2749C30.9534 40.2749 29.9252 41.3059 29.9252 42.5724C29.9252 43.836 30.9534 44.8648 32.2177 44.8648C33.4841 44.8648 34.514 43.836 34.514 42.5724C34.514 41.3059 33.4841 40.2749 32.2177 40.2749ZM32.2177 45.6958C30.4953 45.6958 29.0942 44.2942 29.0942 42.5724C29.0942 40.8478 30.4953 39.444 32.2177 39.444C33.9423 39.444 35.345 40.8478 35.345 42.5724C35.345 44.2942 33.9423 45.6958 32.2177 45.6958Z" fill="#14183E"/>
<path d="M14.0214 14.5242H35.004C35.815 14.5242 36.4748 15.1856 36.4748 15.9917V29.5607C36.4748 30.3662 35.815 31.0227 35.004 31.0227H14.0214C13.2125 31.0227 12.5527 30.3662 12.5527 29.5607V15.9917C12.5527 15.1856 13.2125 14.5242 14.0214 14.5242Z" fill="white"/>
<path d="M15.1044 15.4953H35.0383C35.8084 15.4953 36.4355 16.1241 36.4355 16.8897V29.7801C36.4355 30.5451 35.8084 31.1689 35.0383 31.1689H15.1044C14.3366 31.1689 13.7095 30.5451 13.7095 29.7801V16.8897C13.7095 16.1241 14.3366 15.4953 15.1044 15.4953Z" fill="#39C6F3"/>
<path d="M14.0213 14.9397C13.4408 14.9397 12.9682 15.4117 12.9682 15.9917V29.5607C12.9682 30.138 13.4408 30.6072 14.0213 30.6072H35.0039C35.5856 30.6072 36.0593 30.138 36.0593 29.5607V15.9917C36.0593 15.4117 35.5856 14.9397 35.0039 14.9397H14.0213ZM35.0039 31.4382H14.0213C12.9826 31.4382 12.1372 30.5962 12.1372 29.5607V15.9917C12.1372 14.9535 12.9826 14.1087 14.0213 14.1087H35.0039C36.0438 14.1087 36.8903 14.9535 36.8903 15.9917V29.5607C36.8903 30.5962 36.0438 31.4382 35.0039 31.4382Z" fill="#14183E"/>
<path d="M16.2417 31.4382C16.0123 31.4382 15.8262 31.2521 15.8262 31.0227V14.5242C15.8262 14.2948 16.0123 14.1087 16.2417 14.1087C16.471 14.1087 16.6572 14.2948 16.6572 14.5242V31.0227C16.6572 31.2521 16.471 31.4382 16.2417 31.4382ZM32.7829 31.4382C32.5535 31.4382 32.3674 31.2521 32.3674 31.0227V14.5242C32.3674 14.2948 32.5535 14.1087 32.7829 14.1087C33.0122 14.1087 33.1984 14.2948 33.1984 14.5242V31.0227C33.1984 31.2521 33.0122 31.4382 32.7829 31.4382Z" fill="#14183E"/>
<path d="M19.2792 23.89L19.6166 24.2983L19.9634 23.8878V21.864H19.2792V23.89ZM19.6133 25.3603C19.6127 25.3603 19.6122 25.3603 19.6111 25.3603C19.4881 25.3603 19.3718 25.3049 19.2931 25.2102L18.5435 24.3049C18.482 24.2301 18.4482 24.1371 18.4482 24.0401V21.4485C18.4482 21.2192 18.6338 21.033 18.8637 21.033H20.3789C20.6083 21.033 20.7944 21.2192 20.7944 21.4485V24.0401C20.7944 24.1382 20.7595 24.2329 20.6964 24.3082L19.9307 25.2135C19.8515 25.3071 19.7357 25.3603 19.6133 25.3603ZM29.0584 23.8894L29.3991 24.2988L29.7486 23.8872V21.864H29.0584V23.8894ZM29.3957 25.3603C29.2944 25.3741 29.1553 25.3054 29.0761 25.2107L28.3238 24.3055C28.2617 24.2307 28.2274 24.1371 28.2274 24.0401V21.4485C28.2274 21.2192 28.4135 21.033 28.6429 21.033H30.1641C30.394 21.033 30.5796 21.2192 30.5796 21.4485V24.0401C30.5796 24.1382 30.5447 24.2335 30.481 24.3088L29.7126 25.214C29.6334 25.3071 29.5176 25.3603 29.3957 25.3603" fill="#14183E"/>
<path d="M21.1899 11.0866H27.8373V14.5242H21.1899V11.0866Z" fill="white"/>
<path d="M21.9155 11.7316H28.23V14.9968H21.9155V11.7316Z" fill="#39C6F3"/>
<path d="M21.6054 14.1087H27.4218V11.5022H21.6054V14.1087ZM27.8373 14.9397H21.1899C20.9606 14.9397 20.7744 14.7536 20.7744 14.5242V11.0867C20.7744 10.8573 20.9606 10.6712 21.1899 10.6712H27.8373C28.0667 10.6712 28.2528 10.8573 28.2528 11.0867V14.5242C28.2528 14.7536 28.0667 14.9397 27.8373 14.9397Z" fill="#14183E"/>
<path d="M32.7829 20.2119H16.2417C16.0123 20.2119 15.8262 20.0258 15.8262 19.7964C15.8262 19.5665 16.0123 19.3809 16.2417 19.3809H32.7829C33.0122 19.3809 33.1984 19.5665 33.1984 19.7964C33.1984 20.0258 33.0122 20.2119 32.7829 20.2119Z" fill="#14183E"/>
<path d="M32.7829 18.6748H16.2417C16.0123 18.6748 15.8262 18.4887 15.8262 18.2593C15.8262 18.03 16.0123 17.8438 16.2417 17.8438H32.7829C33.0122 17.8438 33.1984 18.03 33.1984 18.2593C33.1984 18.4887 33.0122 18.6748 32.7829 18.6748Z" fill="#14183E"/>
<path d="M41.3271 45.9502H13.83C13.6007 45.9502 13.4146 45.7641 13.4146 45.5347C13.4146 45.3048 13.6007 45.1192 13.83 45.1192H41.3271C41.5564 45.1192 41.7426 45.3048 41.7426 45.5347C41.7426 45.7641 41.5564 45.9502 41.3271 45.9502" fill="#14183E"/>
<path d="M12.9743 45.9502H10.7905C10.5611 45.9502 10.375 45.7641 10.375 45.5347C10.375 45.3048 10.5611 45.1192 10.7905 45.1192H12.9743C13.2037 45.1192 13.3898 45.3048 13.3898 45.5347C13.3898 45.7641 13.2037 45.9502 12.9743 45.9502Z" fill="#14183E"/>
<path d="M9.99755 45.9502H8.93942C8.71007 45.9502 8.52393 45.7641 8.52393 45.5347C8.52393 45.3048 8.71007 45.1192 8.93942 45.1192H9.99755C10.2269 45.1192 10.413 45.3048 10.413 45.5347C10.413 45.7641 10.2269 45.9502 9.99755 45.9502Z" fill="#14183E"/>
<path d="M33.4273 48H13.2602C13.0309 48 12.8447 47.8139 12.8447 47.5845C12.8447 47.3551 13.0309 47.169 13.2602 47.169H33.4273C33.6567 47.169 33.8428 47.3551 33.8428 47.5845C33.8428 47.8139 33.6567 48 33.4273 48Z" fill="#14183E"/>
<path d="M35.6532 48H34.0527C33.8228 48 33.6372 47.8139 33.6372 47.5845C33.6372 47.3551 33.8228 47.169 34.0527 47.169H35.6532C35.8826 47.169 36.0687 47.3551 36.0687 47.5845C36.0687 47.8139 35.8826 48 35.6532 48Z" fill="#14183E"/>
<path d="M37.0127 47.5845H36.2387C36.0094 47.5845 35.8232 47.3983 35.8232 47.169C35.8232 46.9396 36.0094 46.7535 36.2387 46.7535H37.0127C37.242 46.7535 37.4282 46.9396 37.4282 47.169C37.4282 47.3983 37.242 47.5845 37.0127 47.5845Z" fill="#14183E"/>
</svg>
