<svg width="60" height="60" viewBox="0 0 60 60" fill="none" xmlns="http://www.w3.org/2000/svg">
<path d="M45.5837 10.3878H19.4693C18.0802 10.3878 16.9424 11.5261 16.9424 12.9158V13.1572H18.4969V14.9495H16.9424V19.7393H18.4969V21.5269H16.9424V26.3167H18.4969V28.1049H16.9424V32.8952H18.4969V34.6875H16.9424V39.4736H18.4969V41.265H16.9424V46.0547H18.4969V47.8429H16.9424V48.5093C16.9424 49.6663 17.889 50.6123 19.049 50.6123H45.5837V10.3878" fill="white"/>
<path d="M45.389 11.9144H20.58C19.2607 11.9144 18.1797 12.9964 18.1797 14.3162V14.5457H19.6562V16.2486H18.1797V20.7985H19.6562V22.4968H18.1797V27.0472H19.6562V28.7464H18.1797V33.2968H19.6562V34.9992H18.1797V39.546H19.6562V41.2484H18.1797V45.7983H19.6562V47.497H18.1797V48.1303C18.1797 49.2294 19.0787 50.1284 20.1809 50.1284H45.389V11.9144" fill="#39C6F3"/>
<path d="M17.3301 48.2306V48.5092C17.3301 49.4553 18.1015 50.2245 19.0491 50.2245H45.196V10.7755H19.4694C18.3388 10.7755 17.4103 11.6574 17.3348 12.7694H18.497C18.711 12.7694 18.8847 12.9431 18.8847 13.1571V14.9495C18.8847 15.1635 18.711 15.3372 18.497 15.3372H17.3301V19.3515H18.497C18.711 19.3515 18.8847 19.5252 18.8847 19.7392V21.5269C18.8847 21.7409 18.711 21.9146 18.497 21.9146H17.3301V25.9289H18.497C18.711 25.9289 18.8847 26.1026 18.8847 26.3167V28.1049C18.8847 28.3189 18.711 28.4926 18.497 28.4926H17.3301V32.5074H18.497C18.711 32.5074 18.8847 32.6811 18.8847 32.8951V34.6875C18.8847 34.9015 18.711 35.0752 18.497 35.0752H17.3301V39.0859H18.497C18.711 39.0859 18.8847 39.2596 18.8847 39.4736V41.2649C18.8847 41.4789 18.711 41.6527 18.497 41.6527H17.3301V45.6669H18.497C18.711 45.6669 18.8847 45.8406 18.8847 46.0547V47.8429C18.8847 48.0569 18.711 48.2306 18.497 48.2306H17.3301ZM45.5837 51H19.0491C17.6739 51 16.5547 49.8828 16.5547 48.5092V47.8429C16.5547 47.6288 16.7284 47.4551 16.9424 47.4551H18.1092V46.4424H16.9424C16.7284 46.4424 16.5547 46.2687 16.5547 46.0547V41.2649C16.5547 41.0509 16.7284 40.8772 16.9424 40.8772H18.1092V39.8613H16.9424C16.7284 39.8613 16.5547 39.6876 16.5547 39.4736V34.6875C16.5547 34.4734 16.7284 34.2997 16.9424 34.2997H18.1092V33.2829H16.9424C16.7284 33.2829 16.5547 33.1092 16.5547 32.8951V28.1049C16.5547 27.8909 16.7284 27.7171 16.9424 27.7171H18.1092V26.7044H16.9424C16.7284 26.7044 16.5547 26.5307 16.5547 26.3167V21.5269C16.5547 21.3129 16.7284 21.1392 16.9424 21.1392H18.1092V20.1269H16.9424C16.7284 20.1269 16.5547 19.9532 16.5547 19.7392V14.9495C16.5547 14.7355 16.7284 14.5617 16.9424 14.5617H18.1092V13.5449H16.9424C16.7284 13.5449 16.5547 13.3712 16.5547 13.1571V12.9157C16.5547 11.3079 17.8621 10 19.4694 10H45.5837C45.7977 10 45.9714 10.1737 45.9714 10.3877V50.6123C45.9714 50.8268 45.7977 51 45.5837 51" fill="#14183E"/>
<path d="M20.7334 51C20.5194 51 20.3457 50.8268 20.3457 50.6123V10.3877C20.3457 10.1737 20.5194 10 20.7334 10C20.9475 10 21.1212 10.1737 21.1212 10.3877V50.6123C21.1212 50.8268 20.9475 51 20.7334 51Z" fill="#14183E"/>
<path d="M14.3877 13.1571H18.4966V14.9495H14.3877V13.1571Z" fill="white"/>
<path d="M15.0122 13.7239H18.9153V15.4263H15.0122V13.7239Z" fill="#39C6F3"/>
<path d="M14.7755 14.5617H18.1089V13.5448H14.7755V14.5617ZM18.4966 15.3372H14.3877C14.1737 15.3372 14 15.1635 14 14.9494V13.1571C14 12.9431 14.1737 12.7694 14.3877 12.7694H18.4966C18.7107 12.7694 18.8844 12.9431 18.8844 13.1571V14.9494C18.8844 15.1635 18.7107 15.3372 18.4966 15.3372Z" fill="#14183E"/>
<path d="M14.3877 19.7392H18.4966V21.5269H14.3877V19.7392Z" fill="white"/>
<path d="M15.0122 20.3054H18.9153V22.0037H15.0122V20.3054Z" fill="#39C6F3"/>
<path d="M14.7755 21.1391H18.1089V20.1269H14.7755V21.1391ZM18.4966 21.9146H14.3877C14.1737 21.9146 14 21.7408 14 21.5268V19.7391C14 19.5251 14.1737 19.3514 14.3877 19.3514H18.4966C18.7107 19.3514 18.8844 19.5251 18.8844 19.7391V21.5268C18.8844 21.7408 18.7107 21.9146 18.4966 21.9146Z" fill="#14183E"/>
<path d="M14.3877 26.3168H18.4966V28.105H14.3877V26.3168Z" fill="white"/>
<path d="M15.0122 26.8832H18.9153V28.582H15.0122V26.8832Z" fill="#39C6F3"/>
<path d="M14.7755 27.7172H18.1089V26.7045H14.7755V27.7172ZM18.4966 28.4927H14.3877C14.1737 28.4927 14 28.319 14 28.1049V26.3167C14 26.1027 14.1737 25.929 14.3877 25.929H18.4966C18.7107 25.929 18.8844 26.1027 18.8844 26.3167V28.1049C18.8844 28.319 18.7107 28.4927 18.4966 28.4927Z" fill="#14183E"/>
<path d="M14.3877 32.8952H18.4966V34.6875H14.3877V32.8952Z" fill="white"/>
<path d="M15.0122 33.4612H18.9153V35.1641H15.0122V33.4612Z" fill="#39C6F3"/>
<path d="M14.7755 34.2997H18.1089V33.2829H14.7755V34.2997ZM18.4966 35.0752H14.3877C14.1737 35.0752 14 34.9015 14 34.6875V32.8951C14 32.6811 14.1737 32.5074 14.3877 32.5074H18.4966C18.7107 32.5074 18.8844 32.6811 18.8844 32.8951V34.6875C18.8844 34.9015 18.7107 35.0752 18.4966 35.0752Z" fill="#14183E"/>
<path d="M14.3877 39.4736H18.4966V41.2649H14.3877V39.4736Z" fill="white"/>
<path d="M15.0122 40.0398H18.9153V41.7417H15.0122V40.0398Z" fill="#39C6F3"/>
<path d="M14.7755 40.8771H18.1089V39.8613H14.7755V40.8771ZM18.4966 41.6526H14.3877C14.1737 41.6526 14 41.4789 14 41.2649V39.4735C14 39.2595 14.1737 39.0858 14.3877 39.0858H18.4966C18.7107 39.0858 18.8844 39.2595 18.8844 39.4735V41.2649C18.8844 41.4789 18.7107 41.6526 18.4966 41.6526Z" fill="#14183E"/>
<path d="M14.3877 46.0546H18.4966V47.8428H14.3877V46.0546Z" fill="white"/>
<path d="M15.0122 46.6208H18.9153V48.3196H15.0122V46.6208Z" fill="#39C6F3"/>
<path d="M14.7755 47.4553H18.1089V46.4425H14.7755V47.4553ZM18.4966 48.2307H14.3877C14.1737 48.2307 14 48.057 14 47.843V46.0548C14 45.8408 14.1737 45.6671 14.3877 45.6671H18.4966C18.7107 45.6671 18.8844 45.8408 18.8844 46.0548V47.843C18.8844 48.057 18.7107 48.2307 18.4966 48.2307Z" fill="#14183E"/>
<path d="M39.9721 31.9879C42.0555 33.8723 43.3707 36.5931 43.3707 39.6081V41.5938H22.8081V39.6081C22.8081 36.5931 24.1233 33.8723 26.2067 31.9879H39.9721" fill="white"/>
<path d="M40.149 32.7494C42.1285 34.5397 43.3781 37.1245 43.3781 39.9891V41.875H23.8438V39.9891C23.8438 37.1245 25.0933 34.5397 27.0722 32.7494H40.149" fill="#39C6F3"/>
<path d="M23.1959 41.206H42.983V39.608C42.983 36.8769 41.8322 34.2496 39.8212 32.3756H26.3577C24.3466 34.2496 23.1959 36.8774 23.1959 39.608V41.206ZM43.3707 41.9814H22.8081C22.5941 41.9814 22.4204 41.8077 22.4204 41.5937V39.608C22.4204 36.6096 23.7056 33.7269 25.9467 31.7004C26.0175 31.6358 26.1106 31.6001 26.2067 31.6001H39.9721C40.0678 31.6001 40.1608 31.6358 40.2316 31.7004C42.4727 33.7269 43.7584 36.6091 43.7584 39.608V41.5937C43.7584 41.8077 43.5847 41.9814 43.3707 41.9814Z" fill="#14183E"/>
<path d="M33.0888 19.4059C35.8505 19.4059 38.09 21.6449 38.09 24.4066C38.09 27.1678 35.8505 29.4021 33.0888 29.4021C30.3282 29.4021 28.0918 27.1678 28.0918 24.4066C28.0918 21.6449 30.3282 19.4059 33.0888 19.4059Z" fill="white"/>
<path d="M33.6102 20.1773C36.2333 20.1773 38.3611 22.3047 38.3611 24.9278C38.3611 27.5509 36.2333 29.6741 33.6102 29.6741C30.9876 29.6741 28.8628 27.5509 28.8628 24.9278C28.8628 22.3047 30.9876 20.1773 33.6102 20.1773Z" fill="#39C6F3"/>
<path d="M33.0889 19.7936C30.5474 19.7936 28.4796 21.8631 28.4796 24.4066C28.4796 26.9475 30.5474 29.0143 33.0889 29.0143C35.6329 29.0143 37.7023 26.9475 37.7023 24.4066C37.7023 21.8631 35.6329 19.7936 33.0889 19.7936ZM33.0889 29.7898C30.1199 29.7898 27.7041 27.375 27.7041 24.4066C27.7041 21.4355 30.1199 19.0182 33.0889 19.0182C36.0604 19.0182 38.4778 21.4355 38.4778 24.4066C38.4778 27.375 36.0604 29.7898 33.0889 29.7898Z" fill="#14183E"/>
<path d="M39.5441 41.9814H26.6348C26.4208 41.9814 26.2471 41.8077 26.2471 41.5937V36.593C26.2471 36.379 26.4208 36.2053 26.6348 36.2053C26.8488 36.2053 27.0225 36.379 27.0225 36.593V41.206H39.1564V36.593C39.1564 36.379 39.3301 36.2053 39.5441 36.2053C39.7581 36.2053 39.9318 36.379 39.9318 36.593V41.5937C39.9318 41.8077 39.7581 41.9814 39.5441 41.9814Z" fill="#14183E"/>
</svg>
