<svg width="60" height="60" viewBox="0 0 60 60" fill="none" xmlns="http://www.w3.org/2000/svg">
<path d="M15.5478 9.92027L20.5243 9.11193C21.1833 9.00541 21.8102 9.4598 21.9173 10.1167L23.7076 21.1769H16.3334C16.2241 21.1769 16.1181 21.188 16.0138 21.2163L14.4332 11.4642C14.3151 10.7341 14.8182 10.0379 15.5478 9.92027Z" fill="white"/>
<path d="M16.2829 10.7413L21.0108 9.9735C21.6371 9.87253 22.2324 10.3042 22.334 10.9283L24.0349 21.4354H17.0296C16.9253 21.4354 16.8254 21.446 16.7256 21.4731L15.2243 12.2087C15.1122 11.5147 15.5899 10.8528 16.2829 10.7413" fill="#39C6F3"/>
<path d="M16.3618 20.7608H23.219L21.5069 10.1831C21.4381 9.75984 21.0242 9.45362 20.5904 9.52241L15.6145 10.3307C15.3709 10.3701 15.1562 10.5033 15.0098 10.7058C14.8639 10.9088 14.8045 11.154 14.8439 11.3976L16.3618 20.7608ZM16.014 21.6323C15.9346 21.6323 15.8564 21.6096 15.7881 21.5658C15.6894 21.502 15.6222 21.3988 15.6034 21.2828L14.0228 11.5307C13.9479 11.0675 14.0589 10.6015 14.3351 10.2187C14.6114 9.8353 15.0192 9.58344 15.4819 9.50965L20.4578 8.70131C21.3504 8.55596 22.1876 9.18455 22.3285 10.0495L24.1183 21.1103C24.1377 21.2312 24.1039 21.3533 24.0245 21.4465C23.9457 21.5391 23.8298 21.5929 23.7077 21.5929H16.3335C16.2542 21.5929 16.1848 21.6013 16.1221 21.6185C16.0866 21.6273 16.05 21.6323 16.014 21.6323Z" fill="#14183E"/>
<path d="M14.9277 14.9294C14.7269 14.9294 14.5505 14.7841 14.5177 14.5805C14.4806 14.3536 14.6348 14.1394 14.8611 14.1028L22.3636 12.8834C22.5932 12.8451 22.8046 13.0004 22.8407 13.2273C22.8778 13.4543 22.7236 13.6678 22.4967 13.7045L14.9954 14.9239C14.9727 14.9278 14.9499 14.9294 14.9277 14.9294" fill="#14183E"/>
<path d="M19.8562 21.593C19.6554 21.593 19.479 21.4477 19.4457 21.2435L18.2695 13.968C18.2329 13.7411 18.3872 13.5275 18.6135 13.4903C18.8426 13.4532 19.0546 13.6079 19.0912 13.8343L20.2673 21.1103C20.304 21.3372 20.1497 21.5508 19.9234 21.5875C19.9006 21.5913 19.8784 21.593 19.8562 21.593Z" fill="#14183E"/>
<path d="M16.3334 21.1771H44.2077C44.9067 21.1771 45.4742 21.7436 45.4742 22.4404V50.3146C45.4742 51.0114 44.9067 51.584 44.2077 51.584H16.3334C15.6377 51.584 15.0674 51.0114 15.0674 50.3146V22.4404C15.0674 21.7436 15.6377 21.1771 16.3334 21.1771Z" fill="white"/>
<path d="M17.5905 22.4968H44.0711C44.7346 22.4968 45.2744 23.0349 45.2744 23.6968V50.1774C45.2744 50.8398 44.7346 51.3835 44.0711 51.3835H17.5905C16.9292 51.3835 16.3877 50.8398 16.3877 50.1774V23.6968C16.3877 23.0349 16.9292 22.4968 17.5905 22.4968Z" fill="white"/>
<path d="M16.3335 21.5932C15.8647 21.5932 15.4836 21.9732 15.4836 22.4403V50.3146C15.4836 50.785 15.8647 51.1678 16.3335 51.1678H44.2077C44.6771 51.1678 45.0582 50.785 45.0582 50.3146V22.4403C45.0582 21.9732 44.6771 21.5932 44.2077 21.5932H16.3335ZM44.2077 52H16.3335C15.4059 52 14.6514 51.2438 14.6514 50.3146V22.4403C14.6514 21.5144 15.4059 20.761 16.3335 20.761H44.2077C45.1359 20.761 45.8904 21.5144 45.8904 22.4403V50.3146C45.8904 51.2438 45.1359 52 44.2077 52Z" fill="#14183E"/>
<path d="M43.4204 21.177L44.388 14.0419L41.7949 8.41576L36.8534 13.0194L35.7505 21.177H43.4204Z" fill="white"/>
<path d="M43.813 21.4172L44.7323 14.6388L42.2685 9.29454L37.5744 13.6679L36.5259 21.4172H43.813" fill="#39C6F3"/>
<path d="M36.2264 20.7608H43.057L43.9596 14.1056L41.6573 9.11193L37.2456 13.2224L36.2264 20.7608ZM43.4204 21.593H35.7504C35.6301 21.593 35.5163 21.5409 35.4375 21.4504C35.3582 21.36 35.3221 21.2402 35.3382 21.1209L36.4411 12.9633C36.4545 12.8679 36.4999 12.7802 36.5698 12.7147L41.5108 8.11112C41.609 8.01958 41.7438 7.98295 41.8747 8.00736C42.0057 8.03288 42.1166 8.12054 42.1721 8.24093L44.7658 13.867C44.7996 13.9392 44.8112 14.0191 44.8007 14.0973L43.8326 21.2324C43.8048 21.4393 43.6284 21.593 43.4204 21.593" fill="#14183E"/>
<path d="M44.3887 14.458C44.3704 14.458 44.3515 14.4569 44.3327 14.4541L36.7981 13.4316C36.5701 13.4006 36.4103 13.1909 36.4414 12.9634C36.4724 12.7359 36.6799 12.575 36.9096 12.6072L44.4442 13.6292C44.6722 13.6602 44.8314 13.8699 44.8009 14.0974C44.7726 14.3066 44.5934 14.458 44.3887 14.458" fill="#14183E"/>
<path d="M39.5851 21.593C39.5668 21.593 39.5479 21.5919 39.5291 21.5891C39.301 21.5581 39.1413 21.3484 39.1723 21.1209L40.2076 13.4743C40.2386 13.2473 40.4478 13.087 40.6758 13.1175C40.9033 13.1486 41.0631 13.3583 41.0325 13.5858L39.9967 21.2324C39.969 21.441 39.7898 21.593 39.5851 21.593" fill="#14183E"/>
<path d="M32.7924 9.10036H28.0252C27.5957 9.10036 27.2451 9.44934 27.2451 9.88096V21.177H33.5725V9.88096C33.5725 9.44934 33.2218 9.10036 32.7924 9.10036" fill="white"/>
<path d="M33.2328 9.96204H28.7041C28.2958 9.96204 27.9629 10.2938 27.9629 10.7032V21.4351H33.974V10.7032C33.974 10.2938 33.6406 9.96204 33.2328 9.96204" fill="#39C6F3"/>
<path d="M27.6613 20.7608H33.1565V9.88089C33.1565 9.6795 32.9933 9.51637 32.7925 9.51637H28.0252C27.8244 9.51637 27.6613 9.6795 27.6613 9.88089V20.7608ZM33.5725 21.593H27.2452C27.0155 21.593 26.8291 21.4066 26.8291 21.1769V9.88089C26.8291 9.22124 27.3661 8.68419 28.0252 8.68419H32.7925C33.4516 8.68419 33.9886 9.22124 33.9886 9.88089V21.1769C33.9886 21.4066 33.8022 21.593 33.5725 21.593" fill="#14183E"/>
<path d="M29.6707 13.2446H27.2452C27.0155 13.2446 26.8291 13.0582 26.8291 12.8285C26.8291 12.5989 27.0155 12.4124 27.2452 12.4124H29.6707C29.9004 12.4124 30.0868 12.5989 30.0868 12.8285C30.0868 13.0582 29.9004 13.2446 29.6707 13.2446Z" fill="#14183E"/>
<path d="M28.4607 16.231H27.2452C27.0155 16.231 26.8291 16.0445 26.8291 15.8149C26.8291 15.5852 27.0155 15.3988 27.2452 15.3988H28.4607C28.6904 15.3988 28.8768 15.5852 28.8768 15.8149C28.8768 16.0445 28.6904 16.231 28.4607 16.231Z" fill="#14183E"/>
<path d="M29.6707 19.5271H27.2452C27.0155 19.5271 26.8291 19.3407 26.8291 19.111C26.8291 18.8813 27.0155 18.6949 27.2452 18.6949H29.6707C29.9004 18.6949 30.0868 18.8813 30.0868 19.111C30.0868 19.3407 29.9004 19.5271 29.6707 19.5271Z" fill="#14183E"/>
<path d="M45.4746 27.8632H27.9805V44.8979H45.4746V27.8632Z" fill="white"/>
<path d="M45.5969 28.8485H28.9771V45.0317H45.5969V28.8485Z" fill="#39C6F3"/>
<path d="M28.3961 44.482H45.0581V28.2794H28.3961V44.482ZM45.4742 45.3142H27.9801C27.7504 45.3142 27.564 45.1278 27.564 44.8981V27.8633C27.564 27.6337 27.7504 27.4473 27.9801 27.4473H45.4742C45.7039 27.4473 45.8903 27.6337 45.8903 27.8633V44.8981C45.8903 45.1278 45.7039 45.3142 45.4742 45.3142Z" fill="#14183E"/>
<path d="M41.0905 32.7432H32.3653C32.1356 32.7432 31.9492 32.5568 31.9492 32.3271C31.9492 32.0968 32.1356 31.911 32.3653 31.911H41.0905C41.3202 31.911 41.5066 32.0968 41.5066 32.3271C41.5066 32.5568 41.3202 32.7432 41.0905 32.7432Z" fill="#14183E"/>
<path d="M41.0905 36.7966H32.3653C32.1356 36.7966 31.9492 36.6102 31.9492 36.3805C31.9492 36.1509 32.1356 35.9644 32.3653 35.9644H41.0905C41.3202 35.9644 41.5066 36.1509 41.5066 36.3805C41.5066 36.6102 41.3202 36.7966 41.0905 36.7966Z" fill="#14183E"/>
<path d="M41.0905 40.8442H32.3653C32.1356 40.8442 31.9492 40.6578 31.9492 40.4281C31.9492 40.1985 32.1356 40.0121 32.3653 40.0121H41.0905C41.3202 40.0121 41.5066 40.1985 41.5066 40.4281C41.5066 40.6578 41.3202 40.8442 41.0905 40.8442Z" fill="#14183E"/>
</svg>
