<svg width="60" height="60" viewBox="0 0 60 60" fill="none" xmlns="http://www.w3.org/2000/svg">
<path d="M15.3766 16.2628H21.0722V16.8956C21.0722 17.6436 21.6807 18.2506 22.4272 18.2506H31.4672C32.2121 18.2506 32.8207 17.6436 32.8207 16.8956V16.2628H38.5162C39.6124 16.2628 40.5036 17.1575 40.5036 18.2506V48.6242C40.5036 49.7183 39.6124 50.6125 38.5162 50.6125H15.3766C14.2814 50.6125 13.3872 49.7183 13.3872 48.6242V18.2506C13.3872 17.1575 14.2814 16.2628 15.3766 16.2628Z" fill="white"/>
<path d="M16.4767 17.6425H21.8871V18.2439C21.8871 18.9542 22.4651 19.5312 23.1739 19.5312H31.7624C32.4701 19.5312 33.0477 18.9542 33.0477 18.2439V17.6425H38.4591C39.5 17.6425 40.3467 18.4923 40.3467 19.5312V48.3859C40.3467 49.4248 39.5 50.2751 38.4591 50.2751H16.4767C15.4358 50.2751 14.5859 49.4248 14.5859 48.3859V19.5312C14.5859 18.4923 15.4358 17.6425 16.4767 17.6425Z" fill="#39C6F3"/>
<path d="M15.3769 16.6502C14.4935 16.6502 13.7749 17.3678 13.7749 18.2506V48.6242C13.7749 49.507 14.4935 50.2251 15.3769 50.2251H38.5164C39.3988 50.2251 40.1164 49.507 40.1164 48.6242V18.2506C40.1164 17.3678 39.3988 16.6502 38.5164 16.6502H33.2084V16.8956C33.2084 17.857 32.4273 18.6381 31.4674 18.6381H22.4274C21.4666 18.6381 20.6849 17.857 20.6849 16.8956V16.6502H15.3769ZM38.5164 51H15.3769C14.0663 51 13 49.9348 13 48.6242V18.2506C13 16.9405 14.0663 15.8753 15.3769 15.8753H21.0724C21.2863 15.8753 21.4598 16.0489 21.4598 16.2628V16.8956C21.4598 17.4298 21.8938 17.8632 22.4274 17.8632H31.4674C32 17.8632 32.4335 17.4298 32.4335 16.8956V16.2628C32.4335 16.0489 32.6071 15.8753 32.8209 15.8753H38.5164C39.8255 15.8753 40.8913 16.9405 40.8913 18.2506V48.6242C40.8913 49.9348 39.8255 51 38.5164 51" fill="#14183E"/>
<path d="M22.4273 12.7365H24.5955C24.5955 11.4388 25.6488 10.3876 26.9476 10.3876C28.2442 10.3876 29.2955 11.4388 29.2955 12.7365H31.4673C32.2122 12.7365 32.8208 13.3482 32.8208 14.0916V16.8957C32.8208 17.6437 32.2122 18.2507 31.4673 18.2507H22.4273C21.6808 18.2507 21.0723 17.6437 21.0723 16.8957V14.0916C21.0723 13.3482 21.6808 12.7365 22.4273 12.7365" fill="white"/>
<path d="M23.1741 13.3369H25.2343C25.2343 12.1037 26.2349 11.1046 27.4686 11.1046C28.7006 11.1046 29.6992 12.1037 29.6992 13.3369H31.7625C32.4703 13.3369 33.0484 13.918 33.0484 14.6237V17.2878C33.0484 17.9982 32.4703 18.5752 31.7625 18.5752H23.1741C22.4653 18.5752 21.8872 17.9982 21.8872 17.2878V14.6237C21.8872 13.918 22.4653 13.3369 23.1741 13.3369Z" fill="#39C6F3"/>
<path d="M22.4276 13.124C21.8939 13.124 21.46 13.5579 21.46 14.0916V16.8957C21.46 17.4299 21.8939 17.8633 22.4276 17.8633H31.4675C32.0002 17.8633 32.4336 17.4299 32.4336 16.8957V14.0916C32.4336 13.5579 32.0002 13.124 31.4675 13.124H29.2957C29.0814 13.124 28.9083 12.9504 28.9083 12.7365C28.9083 11.6548 28.0285 10.775 26.9478 10.775C25.8645 10.775 24.9832 11.6548 24.9832 12.7365C24.9832 12.9504 24.8096 13.124 24.5957 13.124H22.4276ZM31.4675 18.6382H22.4276C21.4667 18.6382 20.6851 17.8571 20.6851 16.8957V14.0916C20.6851 13.1302 21.4667 12.3491 22.4276 12.3491H24.2357C24.4247 11.023 25.569 10.0001 26.9478 10.0001C28.3245 10.0001 29.4673 11.023 29.6558 12.3491H31.4675C32.4274 12.3491 33.2085 13.1302 33.2085 14.0916V16.8957C33.2085 17.8571 32.4274 18.6382 31.4675 18.6382" fill="#14183E"/>
<path d="M38.1794 22.7397H15.7156C15.5017 22.7397 15.3281 22.5662 15.3281 22.3523C15.3281 22.1384 15.5017 21.9648 15.7156 21.9648H38.1794C38.3933 21.9648 38.5669 22.1384 38.5669 22.3523C38.5669 22.5662 38.3933 22.7397 38.1794 22.7397Z" fill="#14183E"/>
<path d="M38.1794 30.1313H15.7156C15.5017 30.1313 15.3281 29.9578 15.3281 29.7439C15.3281 29.5295 15.5017 29.3564 15.7156 29.3564H38.1794C38.3933 29.3564 38.5669 29.5295 38.5669 29.7439C38.5669 29.9578 38.3933 30.1313 38.1794 30.1313Z" fill="#14183E"/>
<path d="M38.1794 37.5181H15.7156C15.5017 37.5181 15.3281 37.3445 15.3281 37.1306C15.3281 36.9167 15.5017 36.7432 15.7156 36.7432H38.1794C38.3933 36.7432 38.5669 36.9167 38.5669 37.1306C38.5669 37.3445 38.3933 37.5181 38.1794 37.5181Z" fill="#14183E"/>
<path d="M38.1794 44.9104H15.7156C15.5017 44.9104 15.3281 44.7368 15.3281 44.523C15.3281 44.3091 15.5017 44.1355 15.7156 44.1355H38.1794C38.3933 44.1355 38.5669 44.3091 38.5669 44.523C38.5669 44.7368 38.3933 44.9104 38.1794 44.9104Z" fill="#14183E"/>
<path d="M43.0888 20.536H46.6853C47.1611 20.536 47.5507 21.002 47.5507 21.5723V44.7584L44.8385 49.2729L42.1284 44.7584V21.6875C42.1284 21.0542 42.5598 20.536 43.0888 20.536Z" fill="white"/>
<path d="M43.6969 21.7759H47.1142C47.5668 21.7759 47.9361 22.2181 47.9361 22.7601V44.7869L45.3599 49.0757L42.7856 44.7869V22.8696C42.7856 22.2683 43.1953 21.7759 43.6969 21.7759Z" fill="#39C6F3"/>
<path d="M42.5161 44.6509L44.8387 48.5203L47.1634 44.6509V21.5723C47.1634 21.221 46.9449 20.9235 46.6856 20.9235H43.089C42.7785 20.9235 42.5161 21.2732 42.5161 21.6875V44.6509ZM44.8387 49.6604C44.7029 49.6604 44.5768 49.5891 44.5071 49.4724L41.797 44.9578C41.7603 44.8979 41.7412 44.8286 41.7412 44.7584V21.6875C41.7412 20.8388 42.3456 20.1486 43.089 20.1486H46.6856C47.3768 20.1486 47.9383 20.7876 47.9383 21.5723V44.7584C47.9383 44.8286 47.9192 44.8979 47.8831 44.9578L45.1709 49.4724C45.1012 49.5896 44.9751 49.6604 44.8387 49.6604Z" fill="#14183E"/>
<path d="M46.1598 47.0759L44.8388 49.2729L43.521 47.0759C43.9048 46.846 44.3574 46.7148 44.8388 46.7148C45.3229 46.7148 45.7754 46.846 46.1598 47.0759Z" fill="white"/>
<path d="M46.6145 47.6432L45.3597 49.7302L44.1074 47.6432C44.4721 47.4246 44.902 47.3001 45.3597 47.3001C45.8194 47.3001 46.2492 47.4246 46.6145 47.6432Z" fill="#39C6F3"/>
<path d="M44.0705 47.2401L44.8392 48.5203L45.6094 47.2401C45.1228 47.0588 44.5576 47.0578 44.0705 47.2401ZM44.8387 49.6604C44.7028 49.6604 44.5768 49.5891 44.5065 49.4724L43.1881 47.2753C43.136 47.1869 43.1199 47.0815 43.1447 46.9824C43.1695 46.8821 43.2331 46.7964 43.3214 46.7437C44.2317 46.1981 45.4493 46.1992 46.3585 46.7437C46.4468 46.7964 46.5109 46.8821 46.5357 46.9824C46.5605 47.0815 46.5445 47.1874 46.4918 47.2758L45.1708 49.4729C45.1006 49.5896 44.9751 49.6604 44.8387 49.6604Z" fill="#14183E"/>
<path d="M47.5509 24.7168H42.1287C41.9148 24.7168 41.7412 24.5432 41.7412 24.3293C41.7412 24.1155 41.9148 23.9419 42.1287 23.9419H47.5509C47.7648 23.9419 47.9383 24.1155 47.9383 24.3293C47.9383 24.5432 47.7648 24.7168 47.5509 24.7168Z" fill="#14183E"/>
<path d="M47.5509 45.146H42.1287C41.9148 45.146 41.7412 44.9724 41.7412 44.7585C41.7412 44.5447 41.9148 44.3711 42.1287 44.3711H47.5509C47.7648 44.3711 47.9383 44.5447 47.9383 44.7585C47.9383 44.9724 47.7648 45.146 47.5509 45.146Z" fill="#14183E"/>
<path d="M44.8386 45.146C44.6247 45.146 44.4512 44.9724 44.4512 44.7585V24.3296C44.4512 24.1157 44.6247 23.9421 44.8386 23.9421C45.0525 23.9421 45.2261 24.1157 45.2261 24.3296V44.7585C45.2261 44.9724 45.0525 45.146 44.8386 45.146Z" fill="#14183E"/>
<path d="M27.1056 13.9027C26.5958 13.9027 26.1851 14.316 26.1851 14.8238C26.1851 15.3306 26.5958 15.7444 27.1056 15.7444C27.6135 15.7444 28.0262 15.3306 28.0262 14.8238C28.0262 14.316 27.6135 13.9027 27.1056 13.9027Z" fill="white"/>
<path d="M27.6271 14.4702C27.1425 14.4702 26.7524 14.8629 26.7524 15.3448C26.7524 15.8268 27.1425 16.22 27.6271 16.22C28.109 16.22 28.5017 15.8268 28.5017 15.3448C28.5017 14.8629 28.109 14.4702 27.6271 14.4702Z" fill="#39C6F3"/>
<path d="M27.1059 14.2901C26.8119 14.2901 26.5728 14.5293 26.5728 14.8238C26.5728 15.1177 26.8119 15.3569 27.1059 15.3569C27.4003 15.3569 27.639 15.1177 27.639 14.8238C27.639 14.5293 27.4003 14.2901 27.1059 14.2901ZM27.1059 16.1318C26.3847 16.1318 25.7979 15.545 25.7979 14.8238C25.7979 14.1021 26.3847 13.5152 27.1059 13.5152C27.8276 13.5152 28.4139 14.1021 28.4139 14.8238C28.4139 15.545 27.8276 16.1318 27.1059 16.1318Z" fill="#14183E"/>
</svg>
